# xmcd CD database file
#
# Track frame offsets:
#	150
#	11808
#	17686
#	31920
#	49466
#	60794
#	80264
#	90314
#	107688
#	118327
#	135373
#	145980
#
# Disc length: 2141 seconds
#
# Revision: 0
# Processed by: cddbd v1.5.1PL0 Copyright (c) Steve Scherf et al.
# Submitted via: CDex 1.40Beta9
#
DISCID=92085b0c
DTITLE=t-bone walker/lowell fulson - blue on blues
DYEAR=2002
DGENRE=Blues
TTITLE0=t-bone's back (back on the scene)
TTITLE1=baby please don't go (don't go back to new orleans)
TTITLE2=louisiana bayou drive
TTITLE3=please come back to me
TTITLE4=sometimes I wonder
TTITLE5=(you'll never find anyone) to be a slave like me
TTITLE6=henpecked
TTITLE7=deep in love
TTITLE8=stop and think
TTITLE9=bluesway
TTITLE10=take my hand
TTITLE11=sleeper
EXTD=YEAR: 2002 ID3G: 0
EXTT0=
EXTT1=
EXTT2=
EXTT3=
EXTT4=
EXTT5=
EXTT6=
EXTT7=
EXTT8=
EXTT9=
EXTT10=
EXTT11=
PLAYORDER=
